<svg width="25" height="24" viewBox="0 0 25 24" fill="none" xmlns="http://www.w3.org/2000/svg">
<g clip-path="url(#clip0_324_724)">
<path fill-rule="evenodd" clip-rule="evenodd" d="M12.4542 23.9999L12.4649 24H12.4612L12.4542 23.9999ZM12.5388 24H12.5351L12.5458 23.9999L12.5388 24ZM12.4175 23.9997L12.4291 23.9998H12.4224L12.4175 23.9997ZM12.5776 23.9998H12.5709L12.5825 23.9997L12.5776 23.9998ZM12.3822 23.9994L12.3899 23.9995L12.3837 23.9994H12.3822ZM12.6163 23.9994L12.6101 23.9995L12.6178 23.9994H12.6163ZM12.655 23.999L12.6523 23.9991L12.6627 23.9989L12.655 23.999ZM12.3372 23.9989L12.3477 23.9991L12.345 23.999L12.3372 23.9989ZM12.6937 23.9985L12.6874 23.9985L12.7003 23.9984L12.6937 23.9985ZM12.2997 23.9984L12.3126 23.9985L12.3063 23.9985L12.2997 23.9984ZM12.7323 23.9978L12.7238 23.9979L12.7357 23.9977L12.7323 23.9978ZM12.2643 23.9977L12.2762 23.9979L12.2677 23.9978L12.2643 23.9977ZM12.2204 23.9968L12.2309 23.997L12.2291 23.997L12.2204 23.9968ZM12.7709 23.997L12.7691 23.997L12.7796 23.9968L12.7709 23.997ZM12.1819 23.9958L12.1963 23.9962L12.1905 23.9961L12.1819 23.9958ZM12.8095 23.9961L12.8037 23.9962L12.8181 23.9958L12.8095 23.9961ZM12.8481 23.995L12.8387 23.9953L12.8535 23.9949L12.8481 23.995ZM12.1465 23.9949L12.1613 23.9953L12.1519 23.995L12.1465 23.9949ZM12.1128 23.9939L12.1233 23.9942L12.1134 23.9939L12.1043 23.9936L12.1128 23.9939ZM12.8866 23.9939L12.8767 23.9942L12.8872 23.9939L12.8957 23.9936L12.8866 23.9939ZM12.9251 23.9926L12.9199 23.9928L12.936 23.9922L12.9251 23.9926ZM12.064 23.9922L12.0801 23.9928L12.0749 23.9926L12.064 23.9922ZM12.0289 23.9909L12.0458 23.9915L12.0364 23.9912L12.0289 23.9909ZM12.9636 23.9912L12.9542 23.9915L12.9711 23.9909L12.9636 23.9912ZM11.9944 23.9895L12.011 23.9902L11.998 23.9897L11.9944 23.9895ZM13.002 23.9897L12.989 23.9902L13.0056 23.9895L13.002 23.9897ZM11.9461 23.9874L11.9639 23.9882L11.9596 23.988L11.9461 23.9874ZM13.0404 23.988L13.0361 23.9882L13.0539 23.9874L13.0404 23.988ZM11.9115 23.9858L11.93 23.9866L11.9212 23.9863L11.9115 23.9858ZM13.0788 23.9863L13.07 23.9866L13.0885 23.9858L13.0788 23.9863ZM11.8774 23.9841L11.896 23.985L11.8829 23.9844L11.8774 23.9841ZM13.1171 23.9844L13.104 23.985L13.1226 23.9841L13.1171 23.9844ZM13.1555 23.9824L13.1385 23.9833L13.1535 23.9825L13.1713 23.9815L13.1555 23.9824ZM11.8465 23.9825L11.8615 23.9833L11.8445 23.9824L11.8287 23.9815L11.8465 23.9825ZM13.1937 23.9802L13.1862 23.9806L13.2052 23.9796L13.1937 23.9802ZM11.7948 23.9796L11.8138 23.9806L11.8063 23.9802L11.7948 23.9796ZM11.7609 23.9775L11.7799 23.9787L11.768 23.978L11.7609 23.9775ZM13.232 23.978L13.2201 23.9787L13.2391 23.9775L13.232 23.978ZM11.7286 23.9755L11.7457 23.9766L11.7298 23.9756L11.7138 23.9746L11.7286 23.9755ZM13.2702 23.9756L13.2543 23.9766L13.2714 23.9755L13.2862 23.9746L13.2702 23.9756ZM13.3084 23.9731L13.3026 23.9735L13.3208 23.9723L13.3084 23.9731ZM11.6792 23.9723L11.6974 23.9735L11.6916 23.9731L11.6792 23.9723ZM11.6454 23.97L11.6632 23.9712L11.6535 23.9706L11.6454 23.97ZM13.3465 23.9706L13.3368 23.9712L13.3546 23.97L13.3465 23.9706ZM11.6117 23.9676L11.6281 23.9687L11.6154 23.9678L11.6117 23.9676ZM13.3846 23.9678L13.3719 23.9687L13.3883 23.9676L13.3846 23.9678ZM11.5664 23.9641L11.5807 23.9652L11.5773 23.965L11.5664 23.9641ZM13.4227 23.965L13.4193 23.9652L13.4336 23.9641L13.4227 23.965ZM13.4608 23.962L13.4539 23.9625L13.4685 23.9614L13.4608 23.962ZM11.5315 23.9614L11.5461 23.9625L11.5392 23.962L11.5315 23.9614ZM11.4975 23.9586L11.5099 23.9596L11.5012 23.9589L11.4975 23.9586ZM13.4988 23.9589L13.4901 23.9596L13.5025 23.9586L13.4988 23.9589ZM11.4601 23.9555L11.4638 23.9558L11.4632 23.9557L11.4601 23.9555ZM13.5368 23.9557L13.5362 23.9558L13.5399 23.9555L13.5368 23.9557ZM13.5748 23.9524L13.5714 23.9527L13.5799 23.952L13.5748 23.9524ZM11.4201 23.952L11.4286 23.9527L11.4253 23.9524L11.4201 23.952ZM11.385 23.9488L11.3913 23.9494L11.3874 23.949L11.385 23.9488ZM13.6126 23.949L13.6087 23.9494L13.615 23.9488L13.6126 23.949ZM10.625 23.8541C4.8913 22.9529 0.5 17.9852 0.5 12C0.5 5.37703 5.87703 0 12.5 0C19.123 0 24.5 5.37703 24.5 12C24.5 17.9852 20.1087 22.9529 14.375 23.8541V15.4688H17.1711L17.7031 12H14.375V9.74902C14.375 8.80003 14.8399 7.875 16.3306 7.875H17.8438V4.92188C17.8438 4.92188 16.4705 4.6875 15.1576 4.6875C12.4165 4.6875 10.625 6.34875 10.625 9.35625V12H7.57812V15.4688H10.625V23.8541Z" fill="black"/>
</g>
<defs>
<clipPath id="clip0_324_724">
<rect width="24" height="24" fill="white" transform="translate(0.5)"/>
</clipPath>
</defs>
</svg>
