<svg width="25" height="24" viewBox="0 0 25 24" fill="none" xmlns="http://www.w3.org/2000/svg">
<path fill-rule="evenodd" clip-rule="evenodd" d="M12.5 0C19.123 0 24.5 5.37703 24.5 12C24.5 18.623 19.123 24 12.5 24C5.87703 24 0.5 18.623 0.5 12C0.5 5.37703 5.87703 0 12.5 0ZM12.5 4.5C10.4631 4.5 10.2077 4.50863 9.40775 4.54514C8.60947 4.58156 8.06427 4.70836 7.58717 4.89375C7.094 5.08542 6.67573 5.34188 6.25878 5.75883C5.84183 6.17578 5.58538 6.59405 5.3937 7.08722C5.20831 7.56427 5.08156 8.10947 5.04509 8.90775C5.00863 9.70772 5 9.96314 5 12C5 14.0369 5.00863 14.2923 5.04509 15.0922C5.08156 15.8905 5.20831 16.4357 5.3937 16.9128C5.58538 17.406 5.84183 17.8242 6.25878 18.2412C6.67573 18.6582 7.094 18.9146 7.58717 19.1063C8.06427 19.2916 8.60947 19.4184 9.40775 19.4549C10.2077 19.4914 10.4631 19.5 12.5 19.5C14.5369 19.5 14.7923 19.4914 15.5922 19.4549C16.3905 19.4184 16.9357 19.2916 17.4128 19.1063C17.906 18.9146 18.3242 18.6582 18.7412 18.2412C19.1582 17.8242 19.4146 17.406 19.6063 16.9128C19.7916 16.4357 19.9184 15.8905 19.9549 15.0922C19.9914 14.2923 20 14.0369 20 12C20 9.96314 19.9914 9.70772 19.9549 8.90775C19.9184 8.10947 19.7916 7.56427 19.6063 7.08722C19.4146 6.59405 19.1582 6.17578 18.7412 5.75883C18.3242 5.34188 17.906 5.08542 17.4128 4.89375C16.9357 4.70836 16.3905 4.58156 15.5922 4.54514C14.7923 4.50863 14.5369 4.5 12.5 4.5ZM12.5 5.85136C14.5026 5.85136 14.7398 5.859 15.5307 5.89509C16.2619 5.92847 16.659 6.05062 16.9233 6.15333C17.2734 6.28936 17.5232 6.45192 17.7856 6.71438C18.0481 6.97678 18.2106 7.22667 18.3467 7.57673C18.4494 7.84102 18.5716 8.23809 18.6049 8.96934C18.641 9.76022 18.6486 9.99741 18.6486 12C18.6486 14.0026 18.641 14.2398 18.6049 15.0307C18.5716 15.7619 18.4494 16.159 18.3467 16.4233C18.2106 16.7734 18.0481 17.0232 17.7856 17.2856C17.5232 17.5481 17.2734 17.7106 16.9233 17.8467C16.659 17.9494 16.2619 18.0716 15.5307 18.1049C14.7399 18.141 14.5027 18.1486 12.5 18.1486C10.4973 18.1486 10.2601 18.141 9.46934 18.1049C8.73809 18.0716 8.34102 17.9494 8.07673 17.8467C7.72662 17.7106 7.47678 17.5481 7.21433 17.2856C6.95187 17.0232 6.78936 16.7734 6.65333 16.4233C6.55062 16.159 6.42842 15.7619 6.39505 15.0307C6.35895 14.2398 6.35136 14.0026 6.35136 12C6.35136 9.99741 6.35895 9.76022 6.39505 8.96934C6.42842 8.23809 6.55062 7.84102 6.65333 7.57673C6.78936 7.22667 6.95187 6.97678 7.21433 6.71438C7.47678 6.45192 7.72662 6.28936 8.07673 6.15333C8.34102 6.05062 8.73809 5.92847 9.46934 5.89509C10.2602 5.859 10.4974 5.85136 12.5 5.85136ZM12.5 8.14866C10.373 8.14866 8.64866 9.87295 8.64866 12C8.64866 14.127 10.373 15.8513 12.5 15.8513C14.627 15.8513 16.3513 14.127 16.3513 12C16.3513 9.87295 14.627 8.14866 12.5 8.14866ZM12.5 14.5C11.1193 14.5 10 13.3807 10 12C10 10.6193 11.1193 9.50002 12.5 9.50002C13.8807 9.50002 15 10.6193 15 12C15 13.3807 13.8807 14.5 12.5 14.5ZM17.4035 7.9965C17.4035 8.49356 17.0006 8.89645 16.5035 8.89645C16.0065 8.89645 15.6035 8.49356 15.6035 7.9965C15.6035 7.49944 16.0065 7.0965 16.5035 7.0965C17.0006 7.0965 17.4035 7.49944 17.4035 7.9965Z" fill="black"/>
</svg>
