<svg width="25" height="24" viewBox="0 0 25 24" fill="none" xmlns="http://www.w3.org/2000/svg">
<path fill-rule="evenodd" clip-rule="evenodd" d="M12.5 0C19.123 0 24.5 5.37703 24.5 12C24.5 18.623 19.123 24 12.5 24C5.87703 24 0.5 18.623 0.5 12C0.5 5.37703 5.87703 0 12.5 0ZM8.74827 18.744V9.37266H5.63277V18.744H8.74827ZM19.9805 18.744V13.3699C19.9805 10.4914 18.4436 9.1523 16.3941 9.1523C14.7415 9.1523 14.0013 10.0612 13.5868 10.6995V9.37266H10.4721C10.5134 10.2519 10.4721 18.744 10.4721 18.744H13.5868V13.5104C13.5868 13.2302 13.6069 12.9502 13.6895 12.75C13.9142 12.1905 14.4271 11.611 15.2877 11.611C16.4143 11.611 16.8656 12.4707 16.8656 13.7299V18.744H19.9805ZM7.21156 4.85391C6.14562 4.85391 5.4492 5.55469 5.4492 6.4732C5.4492 7.37236 6.12444 8.09245 7.17031 8.09245H7.19042C8.27675 8.09245 8.95292 7.37236 8.95292 6.4732C8.93277 5.55469 8.2768 4.85391 7.21156 4.85391Z" fill="black"/>
</svg>
