<svg width="16" height="16" viewBox="0 0 16 16" fill="none" xmlns="http://www.w3.org/2000/svg">
<path fill-rule="evenodd" clip-rule="evenodd" d="M11.3489 10.447L16.0001 15.0981L15.095 16.0032L10.4438 11.3521C9.34052 12.2549 7.93022 12.7966 6.39341 12.7966C2.85879 12.7966 -0.0065918 9.9312 -0.0065918 6.39658C-0.0065918 2.86196 2.85879 -0.00341797 6.39341 -0.00341797C9.92803 -0.00341797 12.7934 2.86196 12.7934 6.39658C12.7934 7.93339 12.2517 9.34369 11.3489 10.447ZM6.39341 11.5166C9.22111 11.5166 11.5134 9.22428 11.5134 6.39658C11.5134 3.56888 9.22111 1.27658 6.39341 1.27658C3.56571 1.27658 1.27341 3.56888 1.27341 6.39658C1.27341 9.22428 3.56571 11.5166 6.39341 11.5166Z" fill="#EEEEEE"/>
</svg>
